<svg version="1.1" id="Layer_1" xmlns="http://www.w3.org/2000/svg" xmlns:xlink="http://www.w3.org/1999/xlink" x="0px" y="0px"
	 width="100%" viewBox="0 0 512 512" enable-background="new 0 0 512 512" xml:space="preserve">
<path fill="#FFF" opacity="1.000000" stroke="none" 
	d="
M101.000000,513.000000 
	C67.790077,513.000000 34.580162,513.000000 1.000000,513.000000 
	C1.000000,506.984650 1.000000,500.961700 1.396943,494.582275 
	C2.613963,494.347260 3.433929,494.574066 4.254134,494.574921 
	C29.730209,494.601837 55.206612,494.545288 80.682129,494.670929 
	C85.313934,494.693787 85.660416,492.128876 85.655342,488.560944 
	C85.601341,450.596497 85.551376,412.631683 85.706352,374.667786 
	C85.725960,369.862793 84.235626,368.240845 79.388390,368.306732 
	C62.240887,368.539795 45.087875,368.476257 27.937876,368.372559 
	C18.959003,368.318268 9.967888,368.892029 1.000000,368.000000 
	C1.000000,361.978851 1.000000,355.957703 1.394871,349.586975 
	C13.915382,350.095276 26.056841,349.516998 38.190144,349.595886 
	C55.989468,349.711578 73.791191,349.729614 91.589111,349.534882 
	C94.713585,349.500671 97.915634,351.873810 100.813614,349.891052 
	C107.106720,345.585358 112.879463,340.615173 119.314339,334.413788 
	C98.949951,334.413788 80.005829,334.420410 61.061726,334.406982 
	C58.068863,334.404877 55.003624,334.717712 52.094639,334.197815 
	C27.598215,329.820099 11.047916,315.950867 2.810913,292.375977 
	C2.373045,291.122742 2.326289,289.743744 1.000000,289.000000 
	C1.000000,282.312347 1.000000,275.624725 1.349640,268.341309 
	C5.437192,265.287354 9.487288,264.331970 13.995621,264.569397 
	C18.977505,264.831726 23.989765,264.478760 28.977873,264.673492 
	C32.973679,264.829498 34.856762,263.412354 34.656651,259.208954 
	C34.260586,250.889633 35.440117,242.684616 36.510864,234.444565 
	C40.958862,200.214584 53.264210,169.011520 72.399399,140.437057 
	C83.936310,123.209053 98.158051,108.352982 113.847557,94.882439 
	C134.250320,77.365242 157.265503,64.366257 182.615677,55.465424 
	C201.803299,48.728344 221.467239,44.359173 241.853027,43.561661 
	C245.485611,43.419548 247.826263,41.990406 247.658600,37.778561 
	C247.473282,33.123104 247.565720,28.454370 247.620407,23.792395 
	C247.654205,20.911875 246.351562,19.710836 243.469223,19.361816 
	C239.325043,18.860003 233.607681,21.661180 231.405960,17.701662 
	C229.470840,14.221632 230.734772,8.946011 230.655609,4.462184 
	C230.635284,3.310509 230.878098,2.154188 231.000000,1.000001 
	C248.020889,1.000000 265.041779,1.000000 282.647644,1.456018 
	C283.279999,3.409000 283.465942,4.916955 283.348206,6.400819 
	C283.023956,10.488048 285.081055,15.482128 282.239014,18.431107 
	C279.721985,21.042830 274.932922,19.243256 271.156311,19.359898 
	C267.833313,19.462534 266.257141,20.751245 266.353424,24.182058 
	C266.474823,28.508194 266.571869,32.851185 266.327637,37.166996 
	C266.067719,41.760029 268.320007,43.608807 272.537170,43.574944 
	C278.870056,43.524082 285.064423,44.601429 291.298004,45.511555 
	C322.827942,50.115055 351.779419,61.445930 378.498718,78.671936 
	C399.502960,92.213440 417.414673,109.156784 432.888672,128.677155 
	C444.386749,143.181885 453.760590,158.990173 461.126434,176.020233 
	C471.902222,200.934235 478.288452,226.857101 479.302887,253.987289 
	C479.737030,265.597717 478.414703,264.483948 490.252991,264.676697 
	C497.949951,264.802032 505.990204,263.014435 513.000000,268.000000 
	C513.000000,273.688049 513.000000,279.376068 512.934814,285.890076 
	C512.522827,287.649231 512.098694,288.561615 511.840698,289.518768 
	C506.968262,307.595367 495.982056,320.535156 479.284668,328.907043 
	C473.003662,332.056244 466.125305,333.066681 459.695374,334.913513 
	C459.013153,337.098907 460.029785,338.530243 460.555145,340.083191 
	C465.204987,353.828339 462.153412,369.747711 450.096710,379.206512 
	C445.270996,382.992401 440.725555,387.133759 436.011749,391.064331 
	C422.005798,402.743103 408.007294,414.431061 393.953644,426.052216 
	C379.266846,438.196899 364.528046,450.278778 349.795624,462.368195 
	C337.032715,472.841492 323.177917,479.652618 305.904846,479.548615 
	C241.298157,479.159546 176.687790,479.387207 112.078804,479.382355 
	C104.386162,479.381775 104.533928,479.388275 104.334282,487.236267 
	C104.113289,495.923279 106.055321,504.927368 101.000000,513.000000 
M195.580948,71.303085 
	C180.894531,76.238617 166.738876,82.314331 153.431442,90.339371 
	C131.438599,103.602127 112.547417,120.301476 96.556747,140.405228 
	C83.286415,157.088913 73.353806,175.606461 65.907562,195.450150 
	C58.581196,214.974426 54.130001,235.197327 53.424473,256.108185 
	C53.137657,264.609039 53.375751,264.628143 61.888565,264.628296 
	C192.198486,264.630829 322.508423,264.630249 452.818329,264.630157 
	C453.651520,264.630157 454.489716,264.565552 455.317017,264.634399 
	C459.142792,264.952759 460.704102,263.296906 460.680786,259.393768 
	C460.622040,249.567184 459.424255,239.876526 457.634918,230.250732 
	C450.650970,192.680664 434.878265,159.262634 409.403564,130.740250 
	C387.129578,105.801521 360.382782,87.100899 329.032745,75.052582 
	C306.470337,66.381477 283.061249,61.950378 259.046631,61.534721 
	C237.713699,61.165482 216.743439,64.667610 195.580948,71.303085 
M133.499786,460.629852 
	C191.482498,460.629333 249.465225,460.634308 307.447937,460.621765 
	C315.334625,460.620056 322.603790,458.249969 328.933746,453.720642 
	C345.824585,441.634644 361.141968,427.580536 377.236725,414.496124 
	C397.324615,398.165466 417.100342,381.451324 437.098053,365.008850 
	C443.912872,359.405579 445.872406,350.397766 441.336395,343.767853 
	C436.624420,336.880737 427.274567,335.350372 419.654114,340.516266 
	C412.650391,345.264069 405.856750,350.321930 398.974426,355.248627 
	C376.436890,371.381958 353.969025,387.614288 331.307007,403.570831 
	C326.807037,406.739349 322.896942,411.370544 316.617523,411.368347 
	C281.794434,411.356262 246.967682,411.657227 212.149979,411.223755 
	C196.596222,411.030121 186.308304,396.531342 187.927048,382.726715 
	C189.790756,366.833069 200.062531,358.626740 216.226456,358.621002 
	C233.388077,358.614868 250.550476,358.705109 267.710907,358.560028 
	C273.388611,358.512054 277.904449,356.100311 280.557831,350.700134 
	C282.847382,346.040405 281.249237,342.146362 278.141968,338.849335 
	C274.743408,335.243286 269.979309,334.475311 265.285828,334.464966 
	C230.629501,334.388763 195.972916,334.426392 161.316422,334.422729 
	C153.865265,334.421936 147.295959,336.910980 141.587753,341.601685 
	C130.054184,351.079376 118.595047,360.647552 107.079407,370.147095 
	C104.952705,371.901459 104.341171,374.096497 104.346390,376.768524 
	C104.397476,402.927429 104.435623,429.086731 104.315422,455.245178 
	C104.295998,459.472931 106.017395,460.781525 110.007744,460.680786 
	C117.500748,460.491699 125.001968,460.628571 133.499786,460.629852 
M479.666016,306.174011 
	C486.272644,300.185974 491.310852,293.296631 492.948792,284.260406 
	C489.835571,282.853729 487.136902,283.406982 484.529663,283.406372 
	C365.747955,283.377594 246.966232,283.386932 128.184525,283.389832 
	C94.199303,283.390656 60.214046,283.406067 26.228910,283.351807 
	C22.744558,283.346252 20.083956,283.505341 21.730814,288.218323 
	C27.210335,303.899689 43.665211,315.615540 60.420963,315.615997 
	C189.864716,315.619690 319.308563,315.547607 448.752014,315.743561 
	C460.047516,315.760681 470.041046,313.122986 479.666016,306.174011 
M300.362976,349.267151 
	C300.195496,350.577332 300.174500,351.926453 299.838226,353.191772 
	C295.638000,368.995422 284.683319,377.369385 268.231049,377.380249 
	C250.912537,377.391663 233.593719,377.323792 216.275650,377.411652 
	C209.689728,377.445038 205.812592,381.766418 207.571426,387.091736 
	C209.047379,391.560577 212.776184,392.650146 217.124115,392.644562 
	C247.098434,392.606201 277.073334,392.542664 307.046692,392.717041 
	C311.685516,392.744019 315.426483,391.300385 319.028473,388.718842 
	C337.237549,375.668182 355.484375,362.670258 373.689819,349.614624 
	C379.972473,345.109192 386.174042,340.490540 392.412628,335.923615 
	C392.287140,335.607544 392.161621,335.291473 392.036133,334.975403 
	C361.119720,334.975403 330.203278,334.975403 299.057434,334.975403 
	C299.346191,339.853607 300.933533,344.016113 300.362976,349.267151 
z"/>
<path fill="#FFF" opacity="1.000000" stroke="none" 
	d="
M66.919235,440.396179 
	C73.285835,453.203766 69.812729,467.386993 58.702629,475.129639 
	C48.069145,482.540100 32.778435,480.716827 23.783852,470.965790 
	C16.902903,463.506165 15.309782,449.089386 20.381311,440.174713 
	C25.906507,430.462585 37.420345,425.418610 48.227463,427.284424 
	C56.544353,428.720337 62.590893,432.862030 66.919235,440.396179 
M42.847530,460.495972 
	C46.807392,460.786316 49.218357,458.480560 50.371643,455.183929 
	C51.360600,452.357056 50.410484,449.608917 47.886086,447.631927 
	C45.327732,445.628296 42.612999,445.694794 39.977501,447.245300 
	C37.714157,448.576874 36.238400,450.657837 36.478310,453.401398 
	C36.784485,456.902679 38.860439,459.143524 42.847530,460.495972 
z"/>
<path fill="#FFF" opacity="1.000000" stroke="none" 
	d="
M219.060760,80.694870 
	C227.143234,79.320969 234.773376,77.767448 242.586166,77.635422 
	C245.247650,77.590439 247.926834,77.765984 250.568207,77.520729 
	C257.340057,76.891968 257.335846,76.820145 257.370026,83.483139 
	C257.380280,85.479851 257.387115,87.476761 257.370605,89.473373 
	C257.321381,95.418716 256.544769,96.209358 250.401337,96.360146 
	C213.067184,97.276527 180.383942,110.723885 151.084763,133.249405 
	C149.248047,134.661484 147.729050,136.480194 145.946075,137.970749 
	C144.299286,139.347443 142.496185,140.537170 139.651398,142.623871 
	C136.102997,138.766251 132.420410,134.785141 128.764969,130.779251 
	C126.961304,128.802658 128.375900,127.414696 129.779495,126.174667 
	C144.402008,113.256042 160.268539,102.306915 178.097748,94.112152 
	C191.158478,88.109108 204.707703,83.940498 219.060760,80.694870 
z"/>
<path fill="#FFF" opacity="1.000000" stroke="none" 
	d="
M126.594559,157.535278 
	C123.126396,161.161072 120.539360,165.006531 118.006271,168.895599 
	C115.939919,172.068100 113.544708,173.039566 110.203018,170.409302 
	C107.736389,168.467789 104.988899,166.879303 102.341530,165.172318 
	C99.731087,163.489166 99.246216,161.392197 101.136749,158.909897 
	C105.344688,153.384766 109.184128,147.585663 114.010956,142.520233 
	C115.793785,140.649277 117.158524,140.359192 119.039330,141.908508 
	C121.466133,143.907593 123.793991,146.036072 126.305458,147.920975 
	C130.267776,150.894745 130.248352,153.955276 126.594559,157.535278 
z"/>
</svg>